<?xml version="1.0" standalone="no"?>
<!DOCTYPE svg PUBLIC "-//W3C//DTD SVG 20010904//EN"
 "http://www.w3.org/TR/2001/REC-SVG-20010904/DTD/svg10.dtd">
<svg version="1.0" xmlns="http://www.w3.org/2000/svg"
 width="1024.000000pt" height="1024.000000pt" viewBox="0 0 1024.000000 1024.000000"
 preserveAspectRatio="xMidYMid meet">
<metadata>
Created by potrace 1.14, written by Peter Selinger 2001-2017
</metadata>
<g transform="translate(0.000000,1024.000000) scale(0.100000,-0.100000)"
fill="#000000" stroke="none">
<path d="M8467 6163 c-6 -14 0 -1267 7 -1317 14 -96 97 -205 186 -243 49 -21
212 -42 269 -34 27 3 -31 92 -62 97 -7 1 -36 4 -66 8 -124 15 -189 70 -219
186 -4 14 -7 176 -7 360 l0 335 158 1 c87 1 160 4 163 7 3 3 -2 21 -11 41 -23
47 -63 59 -200 60 l-110 1 -2 215 c-2 145 -7 223 -15 238 -18 34 -81 65 -91
45z"/>
<path d="M5782 5700 c-29 -4 -58 -13 -66 -19 -7 -6 -15 -9 -18 -6 -3 3 -25 -4
-49 -15 -72 -34 -92 -48 -157 -110 -48 -45 -192 -240 -192 -259 0 -5 -4 -11
-8 -13 -5 -1 -23 -24 -40 -50 l-32 -47 44 -30 44 -31 31 39 c17 21 31 44 31
50 0 6 4 11 8 11 5 0 17 16 28 35 10 19 21 35 24 35 4 0 17 19 30 41 12 23 29
49 37 58 7 9 25 31 40 49 26 34 143 122 161 122 6 0 23 5 39 11 39 16 57 19
148 22 122 4 223 -39 318 -134 93 -94 138 -211 132 -343 -6 -109 -31 -163
-174 -370 -22 -32 -45 -74 -50 -93 -11 -40 2 -89 29 -103 15 -8 30 10 106 123
48 73 92 137 98 142 28 26 83 154 93 215 9 52 9 189 -1 235 -9 48 -65 171 -92
205 -84 106 -189 182 -304 218 -46 15 -191 21 -258 12z"/>
<path d="M1677 5664 c-1 -1 -27 -4 -58 -7 -58 -7 -142 -37 -154 -56 -3 -6 -9
-10 -13 -8 -4 2 -21 -11 -39 -30 -18 -18 -30 -33 -26 -33 3 0 -1 -8 -10 -18
-9 -10 -24 -38 -33 -62 -15 -39 -17 -98 -19 -463 l-1 -418 235 1 c223 0 341
11 341 32 0 4 3 7 8 6 12 -3 72 32 72 42 0 22 20 8 36 -25 19 -41 19 -40 61
-50 l32 -6 0 545 c0 509 -1 546 -17 547 -31 1 -414 4 -415 3z m321 -121 c7
-11 6 -637 -1 -678 -5 -29 -34 -86 -60 -115 -22 -25 -91 -63 -114 -63 -7 0
-13 -3 -13 -6 0 -5 -330 -7 -366 -2 -8 1 -11 100 -9 354 2 193 5 359 7 367 10
36 40 80 70 101 18 13 35 26 38 29 14 18 91 25 257 25 128 0 186 -4 191 -12z"/>
<path d="M2534 5649 c-18 -3 -40 -10 -50 -14 -11 -5 -22 -9 -26 -9 -20 -3 -88
-53 -88 -65 0 -8 -3 -12 -6 -8 -14 14 -54 -48 -78 -120 -14 -43 -17 -91 -17
-285 1 -128 2 -242 4 -253 6 -40 30 -105 39 -105 5 0 7 -4 4 -8 -3 -5 8 -23
24 -41 17 -18 30 -36 30 -41 0 -7 26 -22 43 -24 4 -1 11 -6 15 -11 20 -29 90
-39 280 -40 105 -1 195 -5 198 -8 4 -4 7 -95 7 -203 -1 -186 1 -197 21 -219
11 -13 32 -25 46 -27 l25 -3 1 743 1 742 -22 0 c-23 0 -69 -36 -77 -60 -3 -11
-12 -9 -37 9 -17 13 -37 24 -44 25 -7 1 -18 5 -24 9 -29 18 -209 29 -269 16z
m234 -110 c62 -18 114 -76 126 -141 3 -13 5 -23 6 -23 6 0 9 -81 9 -225 0 -91
-1 -219 -1 -285 0 -66 -1 -127 -4 -135 -3 -13 -28 -15 -156 -14 -84 1 -171 4
-193 8 -47 8 -125 44 -125 57 0 6 -5 7 -12 3 -6 -4 -8 -3 -4 4 3 6 2 13 -4 17
-6 3 -18 23 -26 43 -14 30 -17 80 -18 267 -1 127 2 248 6 270 5 22 23 61 41
87 31 47 73 71 143 84 16 3 30 6 31 8 6 5 143 -13 181 -25z"/>
<path d="M3182 5651 c-6 -4 -9 -157 -8 -411 2 -371 4 -409 21 -450 10 -25 23
-48 28 -51 5 -3 9 -10 8 -15 0 -5 8 -20 17 -33 16 -22 23 -29 55 -56 18 -16
77 -42 122 -54 54 -15 287 -10 307 6 8 7 17 11 19 8 3 -2 25 12 49 31 41 33
45 34 57 18 7 -10 13 -22 13 -27 0 -15 41 -47 60 -47 10 0 20 6 22 13 2 6 4
233 3 503 0 398 -3 494 -14 508 -7 9 -10 16 -6 16 5 0 0 9 -10 20 -10 11 -22
17 -26 14 -5 -3 -9 0 -9 5 0 12 -29 15 -31 4 -1 -5 -3 -181 -5 -393 -3 -411
-3 -422 -23 -459 -28 -52 -95 -106 -143 -117 -5 -1 -9 -2 -10 -4 -12 -9 -163
-13 -203 -4 -16 3 -36 7 -42 7 -7 0 -13 3 -13 7 0 3 -15 12 -34 18 -19 7 -37
20 -40 28 -3 8 -11 12 -16 9 -6 -4 -10 -3 -9 2 1 4 -4 22 -11 38 -7 17 -14 33
-15 38 -2 4 -3 8 -5 10 -8 10 -11 97 -13 409 l-2 356 -23 25 c-25 27 -54 38
-70 28z"/>
<path d="M6853 5638 c-34 -11 -71 -29 -82 -39 -11 -11 -23 -19 -27 -19 -16 0
-68 -68 -93 -120 l-26 -55 0 -300 c0 -291 1 -301 23 -346 53 -108 141 -170
262 -186 36 -5 160 -8 275 -8 l210 1 -2 28 c-3 33 -30 62 -65 71 -13 3 -115 7
-228 8 -194 2 -207 4 -250 26 -96 51 -122 103 -127 254 -2 80 0 109 10 112 6
3 148 6 314 8 l301 2 21 24 c12 13 22 27 22 30 18 82 12 219 -11 293 -13 37
-27 68 -32 68 -5 0 -7 4 -4 9 8 12 -62 85 -111 115 -24 14 -43 24 -43 22 0 -3
-17 1 -37 8 -62 21 -227 18 -300 -6z m262 -93 c96 -33 124 -57 158 -134 14
-33 20 -69 21 -130 1 -77 -1 -86 -20 -96 -13 -6 -120 -10 -285 -10 l-264 0 -1
90 c0 50 5 110 12 134 14 47 64 107 104 123 67 29 223 42 275 23z"/>
<path d="M7774 5640 c-114 -37 -216 -157 -220 -260 -2 -82 23 -138 93 -206 63
-61 150 -94 265 -100 114 -5 149 -14 202 -47 68 -43 106 -105 100 -163 -4 -52
-44 -120 -79 -136 -14 -6 -25 -15 -25 -19 0 -22 -80 -32 -285 -38 -217 -6
-221 -7 -248 -31 -14 -14 -28 -36 -29 -50 l-3 -24 235 -1 c256 0 311 7 378 49
184 116 219 301 84 444 -73 77 -150 111 -269 118 -136 7 -176 13 -193 29 -9 8
-21 15 -26 15 -16 0 -84 68 -94 95 -27 70 9 146 92 199 48 31 98 37 306 40
185 2 204 4 229 22 26 20 47 67 35 78 -3 3 -114 6 -246 5 -209 0 -249 -3 -302
-19z"/>
<path d="M4288 5631 c-9 -11 -14 -22 -11 -25 4 -3 2 -6 -4 -6 -11 0 -38 -50
-34 -63 1 -5 -3 -6 -8 -2 -10 6 -37 -33 -33 -47 1 -5 -2 -8 -8 -8 -15 0 -79
-117 -101 -187 -26 -80 -32 -218 -13 -283 8 -25 14 -47 14 -50 1 -18 27 -81
47 -112 12 -21 23 -42 23 -48 0 -5 7 -10 15 -10 8 0 15 -6 15 -14 0 -20 109
-118 123 -110 7 4 9 4 5 -1 -7 -8 42 -44 67 -50 5 -1 27 -10 49 -19 21 -10 52
-20 70 -22 59 -10 197 -12 234 -3 20 5 44 11 53 13 32 8 139 60 139 68 0 4 6
8 13 8 21 0 170 149 149 150 -4 0 0 6 8 13 23 19 130 180 130 196 0 8 -3 12
-6 9 -3 -3 -17 5 -31 18 -14 13 -31 24 -38 24 -15 0 -40 -28 -33 -36 3 -2 -10
-21 -28 -41 -19 -20 -34 -41 -34 -46 0 -4 -7 -15 -15 -24 -8 -8 -12 -19 -9
-25 4 -6 2 -8 -3 -5 -11 7 -59 -61 -55 -76 2 -5 -2 -6 -7 -3 -11 7 -33 -19
-23 -28 4 -4 2 -6 -3 -5 -13 4 -95 -51 -95 -63 0 -5 -4 -7 -9 -4 -5 3 -22 -1
-39 -10 -29 -14 -42 -18 -102 -29 -63 -11 -153 -5 -207 16 -15 6 -30 11 -33
11 -51 6 -215 143 -228 191 -1 4 -8 20 -16 35 -31 61 -45 131 -41 220 1 49 7
97 13 108 5 10 18 39 28 64 11 25 34 64 52 88 18 24 30 47 27 52 -4 6 0 10 7
10 18 1 48 64 48 103 0 31 -23 77 -38 77 -4 0 -15 -9 -24 -19z"/>
<path d="M4281 5219 c-17 -17 -32 -34 -32 -37 -16 -84 19 -147 92 -165 28 -7
113 30 109 47 -1 5 4 12 10 16 18 11 20 73 4 106 -19 39 -62 64 -112 64 -32 0
-47 -7 -71 -31z"/>
<path d="M6309 4479 c0 -2 -2 -12 -4 -21 -2 -10 3 -18 10 -18 7 0 12 7 11 15
-2 14 -15 33 -17 24z"/>
<path d="M6863 4376 c-33 -18 -42 -40 -42 -101 0 -82 13 -98 90 -103 49 -4 61
-2 57 9 -3 8 -21 15 -44 15 -21 1 -44 2 -51 3 -6 1 -16 15 -22 31 l-10 30 47
2 c71 2 72 2 81 17 12 19 4 62 -15 82 -19 21 -67 29 -91 15z m77 -31 c4 -3 7
-15 6 -27 -1 -18 -8 -24 -36 -28 -19 -4 -41 -4 -47 -2 -16 5 -17 44 -1 60 10
10 59 8 78 -3z"/>
<path d="M7536 4383 c-3 -3 -19 -6 -36 -5 -34 1 -33 4 -32 -121 0 -38 5 -74
11 -80 12 -12 12 -10 13 96 1 61 12 79 53 84 35 5 47 -20 48 -97 0 -47 5 -74
14 -82 12 -10 14 2 12 73 -1 46 -5 91 -10 100 -9 18 -63 41 -73 32z"/>
<path d="M8165 4378 c-43 -16 -55 -36 -54 -93 1 -65 15 -102 42 -109 36 -9
107 -7 107 4 0 11 0 11 -59 15 -24 2 -48 9 -52 17 -14 21 -11 126 4 135 6 4
31 8 55 9 48 1 86 24 40 24 -15 0 -32 2 -40 4 -7 3 -26 0 -43 -6z"/>
<path d="M8797 4374 c-25 -13 -34 -36 -38 -99 -5 -77 21 -105 98 -105 40 0 51
3 47 14 -3 9 -19 13 -45 12 -22 -1 -47 3 -55 8 -18 14 -27 56 -11 57 7 1 32 2
57 4 25 1 48 3 53 4 12 2 8 66 -5 84 -20 27 -70 37 -101 21z m76 -32 c8 -7 14
-21 13 -30 -2 -13 -13 -17 -52 -17 -38 0 -48 3 -46 15 2 8 4 22 5 31 1 20 57
20 80 1z"/>
<path d="M3187 4368 c-18 -14 -27 -41 -31 -98 -3 -39 20 -94 34 -85 6 4 10 2
10 -2 0 -11 99 -13 106 -2 3 5 -2 10 -10 10 -25 2 -74 6 -90 8 -14 1 -41 60
-28 62 4 1 29 3 55 4 27 2 54 6 61 8 17 7 15 73 -1 70 -7 -2 -10 3 -7 11 9 24
-70 35 -99 14z m89 -25 c17 -37 10 -48 -31 -53 -53 -7 -65 -3 -65 26 0 41 79
63 96 27z"/>
<path d="M3802 4348 c0 -18 6 -43 13 -54 10 -15 10 -25 3 -32 -16 -16 -21 -79
-7 -88 8 -4 10 -3 5 4 -4 7 -3 12 3 12 5 0 8 9 6 19 -5 28 18 54 51 56 37 2
54 -11 54 -44 0 -34 19 -66 21 -36 2 37 -3 70 -13 82 -6 8 -4 21 5 40 10 18
12 36 6 51 -12 31 -21 28 -17 -7 4 -43 -17 -62 -66 -59 -37 3 -41 6 -40 28 1
33 -6 60 -16 60 -5 0 -8 -15 -8 -32z"/>
<path d="M4449 4376 c-3 -4 -4 -253 -1 -263 10 -29 21 -10 19 30 l-2 44 38 -3
c58 -5 87 28 87 99 0 75 -15 91 -84 93 -31 1 -56 1 -57 0z m107 -24 c6 -4 10
-35 10 -71 -2 -70 -11 -80 -70 -77 -29 2 -29 2 -30 66 -1 47 3 68 14 77 17 14
59 17 76 5z"/>
<path d="M5103 4358 c-24 -27 -25 -124 -2 -159 15 -22 26 -25 74 -27 40 -1 55
2 52 11 -2 7 -23 12 -50 12 -51 0 -64 8 -69 45 -3 24 -1 25 56 26 78 2 91 26
50 91 -18 29 -85 29 -111 1z m89 -10 c8 -7 18 -23 21 -35 4 -19 1 -23 -19 -24
-87 -4 -91 -2 -86 30 5 38 52 54 84 29z"/>
<path d="M5730 4279 c0 -55 4 -101 10 -104 12 -8 12 -7 15 85 3 67 5 76 30 96
l28 22 -42 -1 -41 -1 0 -97z"/>
<path d="M6305 4370 c-11 -18 -3 -179 10 -190 10 -8 13 10 13 90 0 92 -7 125
-23 100z"/>
</g>
</svg>
